<svg width="133" height="195" viewBox="0 0 133 195" fill="none" xmlns="http://www.w3.org/2000/svg">
<path d="M107.8 140.8C107.8 138 106.133 133.667 102.8 127.8C101.333 125.534 99.8666 123.467 98.4 121.6C97.0666 119.6 95.7333 117.867 94.4 116.4C90.9333 112.667 87.2 109 83.2 105.4C79.3333 101.8 75.6 98.4669 72 95.4002C71.3333 94.7335 69.8666 94.4002 67.6 94.4002C61.3333 94.4002 54.0666 97.9335 45.8 105C41.8 108.467 38.3333 112.067 35.4 115.8C32.6 119.534 30.4 123.334 28.8 127.2C28 129.734 27.2666 131.867 26.6 133.6C25.9333 135.334 25.6 136.334 25.6 136.6C25.6 141.934 27.3333 147.867 30.8 154.4C34.4 160.4 39.0666 164.867 44.8 167.8C45.6 168.334 46.8666 168.8 48.6 169.2C50.3333 169.467 52.6666 169.867 55.6 170.4H55.4C55.5333 170.4 55.7333 170.467 56 170.6C56.4 170.734 56.8666 170.867 57.4 171V170.8C58.0666 171.067 58.8 171.334 59.6 171.6C60.5333 171.734 60.8666 171.8 60.6 171.8C64.8666 171.8 69.2666 171.134 73.8 169.8C78.3333 168.467 83.2666 166.467 88.6 163.8C101.4 157.4 107.8 149.734 107.8 140.8ZM132.2 132.8C132.2 146.267 124.733 159.334 109.8 172C106.867 174.4 103.333 176.934 99.2 179.6C95.0666 182.134 90.2666 184.734 84.8 187.4C84.5333 187.534 84.1333 187.667 83.6 187.8C83.0666 187.934 82.5333 188.134 82 188.4C81.6 188.534 81.1333 188.667 80.6 188.8C80.2 188.934 79.7333 189.067 79.2 189.2C71.6 192.934 63.1333 194.8 53.8 194.8C50.4666 194.8 45.1333 194.2 37.8 193C37.1333 192.734 36.2666 192.334 35.2 191.8C34.2666 191.267 33.0666 190.667 31.6 190L31.8 190.2C29 189.534 26.0666 188.267 23 186.4C19.9333 184.4 16.8 181.934 13.6 179C10.5333 176.2 7.99995 173.267 5.99995 170.2C3.99995 167.134 2.59995 164.267 1.79995 161.6C0.599951 157.867 -4.88376e-05 153.267 -4.88376e-05 147.8C-4.88376e-05 142.2 0.666618 136.934 1.99995 132C2.79995 131.2 3.66662 129.734 4.59995 127.6C5.26662 125.467 6.59995 122.734 8.59995 119.4C10.6 115.934 13.4 111.934 17 107.4C18.7333 105.267 20.8666 103.067 23.4 100.8C26.0666 98.4002 29.1333 95.7335 32.6 92.8002C34.2 91.6002 35.7333 90.5335 37.2 89.6002C38.8 88.5335 40.4 87.6002 42 86.8002C50.6666 82.8002 55 80.0002 55 78.4002C55 78.1335 54.2 77.2002 52.6 75.6002C52.3333 75.3335 52.0666 75.1335 51.8 75.0002C51.5333 74.7335 51.2666 74.4669 51 74.2002L47.8 71.0002C47.1333 70.3335 46.4 69.6002 45.6 68.8002C44.8 67.8669 43.8666 66.8669 42.8 65.8002C42.1333 65.0002 41.3333 64.2002 40.4 63.4002C39.6 62.4669 38.6666 61.4669 37.6 60.4002C21.0666 38.5335 12.8 26.2002 12.8 23.4002C12.8 18.4669 17.6666 13.1335 27.4 7.40019C31.2666 5.00019 34.7333 3.20019 37.8 2.00019C41 0.666857 43.4 0.000191212 45 0.000191212C45.2666 0.000191212 45.6666 0.000191212 46.2 0.000191212C46.7333 0.000191212 47.1333 0.066857 47.4 0.200189C47.8 0.33352 48.2 0.466852 48.6 0.600183C49.1333 0.733515 49.9333 1.00018 51 1.40019C51.2666 1.93352 51.4666 2.46685 51.6 3.00019C51.8666 3.40018 52 3.80018 52 4.20018C52 5.93352 50.6666 7.53352 48 9.00018C45.6 10.2002 44.2 11.3335 43.8 12.4002C43.6666 12.5335 43.6 13.1335 43.6 14.2002C43.6 16.7335 47.5333 23.3335 55.4 34.0002C58.4666 38.0002 61.2 41.4002 63.6 44.2002C66 47.0002 67.9333 49.1335 69.4 50.6002L70.4 51.6002C71.7333 52.8002 73.2666 54.2669 75 56.0002C76.8666 57.6002 79 59.6002 81.4 62.0002C84.0666 64.6669 86.7333 67.2669 89.4 69.8002C92.0666 72.3335 94.7333 74.9335 97.4 77.6002C99.9333 80.1335 102.467 82.6002 105 85.0002C107.533 87.4002 110.067 89.8669 112.6 92.4002C116.6 96.6669 120.067 101 123 105.4C126.067 109.8 128.467 114.134 130.2 118.4C130.867 119.867 131.333 121.867 131.6 124.4C132 126.934 132.2 129.734 132.2 132.8Z" fill="url(#paint0_linear_277_5)"/>
<defs>
<linearGradient id="paint0_linear_277_5" x1="80.571" y1="45.719" x2="80.571" y2="183.483" gradientUnits="userSpaceOnUse">
<stop stop-color="#FFDF60"/>
<stop offset="1" stop-color="#9D8939"/>
</linearGradient>
</defs>
</svg>
